<svg width="11" height="11" viewBox="0 0 11 11" fill="none" xmlns="http://www.w3.org/2000/svg">
<path d="M9.93248 1.22223H1.05653C0.890406 1.22223 0.736145 1.25783 0.59375 1.32903L5.4945 5.30421L10.3953 1.32903C10.2529 1.25783 10.1105 1.22223 9.93248 1.22223Z" fill="#429FA4"/>
<path d="M5.82632 6.3959C5.73139 6.47897 5.61273 6.51457 5.49407 6.51457C5.3754 6.51457 5.25674 6.47897 5.16181 6.3959L0 2.20712C0 2.23086 0 2.24272 0 2.27832V8.72169C0 9.30313 0.474649 9.77778 1.0561 9.77778H9.94391C10.5254 9.77778 11 9.30313 11 8.72169V2.27832C11 2.25459 11 2.24272 11 2.20712L5.82632 6.3959Z" fill="#429FA4"/>
</svg>
