<svg width="11" height="11" viewBox="0 0 11 11" fill="none" xmlns="http://www.w3.org/2000/svg">
<path d="M9.93199 1.22223H1.05604C0.889918 1.22223 0.735657 1.25783 0.593262 1.32903L5.49402 5.30421L10.3948 1.32903C10.2524 1.25783 10.11 1.22223 9.93199 1.22223Z" fill="#D0E3E4"/>
<path d="M5.82632 6.3959C5.73139 6.47897 5.61273 6.51457 5.49407 6.51457C5.3754 6.51457 5.25674 6.47897 5.16181 6.3959L0 2.20712C0 2.23086 0 2.24272 0 2.27832V8.72169C0 9.30313 0.474649 9.77778 1.0561 9.77778H9.94391C10.5254 9.77778 11 9.30313 11 8.72169V2.27832C11 2.25459 11 2.24272 11 2.20712L5.82632 6.3959Z" fill="#D0E3E4"/>
</svg>
