<svg width="10" height="10" viewBox="0 0 10 10" fill="none" xmlns="http://www.w3.org/2000/svg">
<path d="M10 1.65803C10 0.7772 9.2228 0 8.34197 0H1.65803C0.7772 0 0 0.7772 0 1.65803V8.34196C0 9.22279 0.7772 10 1.65803 10H5.0259V6.21762H3.78238V4.55959H5.0259V3.88601C5.0259 2.74611 5.85492 1.76165 6.89119 1.76165H8.23835V3.41968H6.89119C6.73575 3.41968 6.58031 3.57513 6.58031 3.88601V4.55959H8.23835V6.21762H6.58031V10H8.34197C9.2228 10 10 9.22279 10 8.34196V1.65803Z" fill="url(#paint0_linear)"/>
<defs>
<linearGradient id="paint0_linear" x1="5" y1="0" x2="5" y2="10" gradientUnits="userSpaceOnUse">
<stop stop-color="#73C4C7"/>
<stop offset="1" stop-color="#429FA4"/>
</linearGradient>
</defs>
</svg>
