<svg width="50" height="50" viewBox="0 0 50 50" fill="none" xmlns="http://www.w3.org/2000/svg">
<circle cx="25" cy="25" r="25" fill="white"/>
<path d="M24.3069 34.6927L20.0382 30.4239V24.5451C20.6028 24.3987 21.1438 24.173 21.6451 23.8749L26.3459 28.5757V34.2306H29.4998V29.4998H34.2306V26.3459H28.5757L23.8749 21.6451C24.173 21.1438 24.3987 20.6028 24.5451 20.0382H30.4239L34.6927 24.3069L36.9224 22.0771L33.3065 18.4612L36.9224 14.8453L34.6927 12.6155L30.4239 16.8843H24.5451C24.4877 16.6543 24.4172 16.428 24.3337 16.2062L28.5536 12.1535H34.2306V8.99959H29.4998V4.26877H26.3459V9.90475L22.4651 13.6279C21.7579 13.0376 20.9292 12.6107 20.0382 12.3774V6.49856L24.3069 2.22979L22.0771 0L18.4612 3.61592L14.8453 0L12.6155 2.22979L16.8843 6.49856V12.3774C16.3132 12.5268 15.7659 12.7556 15.2585 13.0571L10.5765 8.52651V2.69183H7.42265V7.56458L2.73914 7.42265L2.64453 10.5765L8.34043 10.7484L13.0366 15.2979C12.7445 15.7936 12.5227 16.3275 12.3774 16.8843H6.49856L2.22979 12.6155L0 14.8453L3.61592 18.4612L0 22.0771L2.22979 24.3069L6.49856 20.0382H12.3774C12.5238 20.6028 12.7495 21.1438 13.0476 21.6451L8.34674 26.3459H2.69183V29.4998H7.42265V34.2306H10.5765V28.5757L15.2774 23.8749C15.7787 24.173 16.3196 24.3987 16.8843 24.5451V30.4239L12.6155 34.6927L14.8453 36.9224L18.4612 33.3065L22.0771 36.9224L24.3069 34.6927ZM15.3073 18.4612C15.3073 16.7194 16.7194 15.3073 18.4612 15.3073C20.2031 15.3073 21.6151 16.7194 21.6151 18.4612C21.6151 20.2031 20.2031 21.6151 18.4612 21.6151C16.7194 21.6151 15.3073 20.2031 15.3073 18.4612Z" fill="url(#paint0_linear)"/>
<path d="M45.2692 42.1153V37.3845H42.1153V42.1153H37.3845V45.2692H42.1153V50H45.2692V45.2692H50V42.1153H45.2692Z" fill="url(#paint1_linear)"/>
<path d="M47.3069 22.078L22.0764 47.3085L24.3065 49.5386L49.537 24.3081L47.3069 22.078Z" fill="url(#paint2_linear)"/>
<defs>
<linearGradient id="paint0_linear" x1="18.4612" y1="0" x2="18.4612" y2="36.9224" gradientUnits="userSpaceOnUse">
<stop stop-color="#73C4C7"/>
<stop offset="1" stop-color="#429FA4"/>
</linearGradient>
<linearGradient id="paint1_linear" x1="43.6923" y1="37.3845" x2="43.6923" y2="50" gradientUnits="userSpaceOnUse">
<stop stop-color="#73C4C7"/>
<stop offset="1" stop-color="#429FA4"/>
</linearGradient>
<linearGradient id="paint2_linear" x1="34.6916" y1="34.6932" x2="36.9218" y2="36.9233" gradientUnits="userSpaceOnUse">
<stop stop-color="#73C4C7"/>
<stop offset="1" stop-color="#429FA4"/>
</linearGradient>
</defs>
</svg>
