<svg width="11" height="11" viewBox="0 0 11 11" fill="none" xmlns="http://www.w3.org/2000/svg">
<path d="M9.56807 0.283366C9.19162 -0.0930611 8.57906 -0.0930826 8.20261 0.283366L6.63045 1.85552C6.4481 2.03788 6.34766 2.28036 6.34766 2.53825C6.34766 2.79615 6.44807 3.03862 6.63045 3.22098L7.32236 3.91289L10.26 0.975269L9.56807 0.283366Z" fill="#429FA4"/>
<path d="M10.1046 2.05518L8.38401 3.77573C8.49638 3.94747 8.55683 4.14812 8.55683 4.35812C8.55683 4.64309 8.44585 4.911 8.24437 5.11253L5.11197 8.24492C4.7494 8.60749 4.18873 8.65392 3.77528 8.38448L2.05469 10.1051C2.70444 10.7009 3.53096 10.999 4.35757 10.999C5.23067 10.999 6.1038 10.6667 6.76848 10.002L10.0014 6.76905C10.6453 6.12508 11 5.26887 11 4.35815C11 3.49733 10.6831 2.68538 10.1046 2.05518Z" fill="#429FA4"/>
<path d="M3.22042 6.6313C2.84397 6.25487 2.23141 6.25485 1.85496 6.6313L0.282798 8.20346C0.100418 8.38584 0 8.62829 0 8.88621C0 9.14413 0.100418 9.38658 0.282798 9.56894L0.974701 10.2608L3.91234 7.3232L3.22042 6.6313Z" fill="#429FA4"/>
</svg>
