<svg width="11" height="11" viewBox="0 0 11 11" fill="none" xmlns="http://www.w3.org/2000/svg">
<path d="M9.56831 0.283358C9.19186 -0.0930687 8.5793 -0.0930902 8.20286 0.283358L6.6307 1.85552C6.44834 2.03788 6.3479 2.28035 6.3479 2.53825C6.3479 2.79614 6.44832 3.03862 6.6307 3.22097L7.3226 3.91288L10.2602 0.975261L9.56831 0.283358Z" fill="#D0E3E4"/>
<path d="M10.1046 2.05517L8.38401 3.77572C8.49638 3.94747 8.55683 4.14811 8.55683 4.35812C8.55683 4.64309 8.44585 4.911 8.24437 5.11252L5.11197 8.24491C4.7494 8.60748 4.18873 8.65391 3.77528 8.38448L2.05469 10.1051C2.70444 10.7009 3.53096 10.999 4.35757 10.999C5.23067 10.999 6.1038 10.6666 6.76848 10.0019L10.0014 6.76905C10.6453 6.12507 11 5.26886 11 4.35814C11 3.49733 10.6831 2.68537 10.1046 2.05517Z" fill="#D0E3E4"/>
<path d="M3.22042 6.63131C2.84397 6.25489 2.23141 6.25486 1.85496 6.63131L0.282798 8.20347C0.100418 8.38585 0 8.6283 0 8.88622C0 9.14414 0.100418 9.38659 0.282798 9.56895L0.974701 10.2609L3.91234 7.32322L3.22042 6.63131Z" fill="#D0E3E4"/>
</svg>
