<svg width="50" height="50" viewBox="0 0 50 50" fill="none" xmlns="http://www.w3.org/2000/svg">
<g clip-path="url(#clip0)">
<circle cx="25" cy="25" r="25" fill="white"/>
<path d="M32.9407 27.2821L37.4924 28.1854C37.6523 30.7432 39.8554 32.6868 42.4131 32.5269C44.9708 32.367 46.9145 30.1639 46.7546 27.6062C46.5947 25.0484 44.3916 23.1048 41.8338 23.2647C40.1757 23.3684 38.6996 24.3506 37.9635 25.8401L33.2534 24.9054C33.2023 23.1213 32.5119 21.4149 31.3082 20.097L37.6575 11.1277C40.5977 12.4029 44.0148 11.0531 45.2898 8.11309C46.5649 5.17308 45.2152 1.75583 42.2752 0.480789C39.3352 -0.794252 35.9179 0.555426 34.6429 3.49544C33.728 5.605 34.145 8.05568 35.7061 9.74385L29.4321 18.6069C26.4304 16.9224 22.6656 17.5117 20.3224 20.0329L12.1008 13.648C13.1863 11.3207 12.1796 8.5541 9.85233 7.46852C7.52497 6.38294 4.75839 7.38969 3.67281 9.71694C2.58724 12.0443 3.59399 14.8109 5.92124 15.8965C7.43107 16.6007 9.20237 16.4433 10.5645 15.4839L18.9873 22.0249C17.6343 24.9801 18.3507 28.4713 20.7585 30.6545L15.7131 37.7899C12.7346 36.1293 8.9738 37.1977 7.31326 40.1762C5.65272 43.1547 6.72107 46.9155 9.69959 48.576C12.6781 50.2366 16.4389 49.1682 18.0994 46.1897C19.3169 44.0059 19.0973 41.3034 17.5431 39.3448L22.764 31.9607C24.5831 32.7677 26.6495 32.8131 28.5024 32.0869L34.7436 41.3066C32.835 43.4804 33.0501 46.7898 35.2237 48.6983C37.3975 50.6069 40.7069 50.3918 42.6154 48.2182C44.524 46.0444 44.3089 42.735 42.1353 40.8265C40.6406 39.5141 38.5317 39.1617 36.6915 39.9166L30.5652 30.8667C31.6902 29.9295 32.5161 28.6834 32.9407 27.2821ZM42.1213 25.6478C43.3621 25.6478 44.368 26.6537 44.368 27.8945C44.368 29.1354 43.3621 30.1413 42.1213 30.1413C40.8804 30.1413 39.8745 29.1354 39.8745 27.8945C39.8756 26.6541 40.8809 25.6487 42.1213 25.6478ZM39.9507 2.42062C41.8255 2.42074 43.3453 3.94062 43.3452 5.81539C43.3451 7.69015 41.8252 9.21004 39.9505 9.20992C38.0757 9.2098 36.5559 7.69003 36.5559 5.81527C36.5582 3.94122 38.0768 2.42266 39.9507 2.42062ZM7.89516 13.9394C6.65493 13.938 5.64984 12.9329 5.64841 11.6927C5.64841 10.4518 6.65433 9.44591 7.89516 9.44591C9.13599 9.44591 10.1419 10.4518 10.1419 11.6927C10.1419 12.9335 9.13611 13.9394 7.89516 13.9394ZM12.7219 46.9347C10.6421 46.9346 8.95622 45.2487 8.95634 43.1689C8.95646 41.0892 10.6424 39.4033 12.7221 39.4034C14.8018 39.4035 16.4877 41.0894 16.4877 43.1691C16.4854 45.2479 14.8007 46.9325 12.7219 46.9347ZM38.6785 41.9172C40.2543 41.919 41.5311 43.1959 41.5329 44.7716C41.5329 46.3481 40.255 47.626 38.6785 47.626C37.1021 47.626 35.8242 46.3481 35.8242 44.7716C35.8242 43.1951 37.1022 41.9172 38.6785 41.9172ZM25.7844 30.2087C22.9789 30.2056 20.7054 27.9321 20.7023 25.1266C20.7023 22.3199 22.9776 20.0445 25.7844 20.0445C28.5911 20.0445 30.8665 22.3199 30.8665 25.1266C30.8665 27.9334 28.5911 30.2087 25.7844 30.2087Z" fill="url(#paint0_linear)" stroke="url(#paint1_linear)" stroke-width="0.5"/>
</g>
<defs>
<linearGradient id="paint0_linear" x1="24.9998" y1="0.000244141" x2="24.9998" y2="50.0002" gradientUnits="userSpaceOnUse">
<stop stop-color="#73C4C7"/>
<stop offset="1" stop-color="#429FA4"/>
</linearGradient>
<linearGradient id="paint1_linear" x1="24.9998" y1="0.000244141" x2="24.9998" y2="50.0002" gradientUnits="userSpaceOnUse">
<stop stop-color="#73C4C7"/>
<stop offset="1" stop-color="#429FA4"/>
</linearGradient>
<clipPath id="clip0">
<rect width="50" height="50" fill="white"/>
</clipPath>
</defs>
</svg>
