<svg width="50" height="50" viewBox="0 0 50 50" fill="none" xmlns="http://www.w3.org/2000/svg">
<g clip-path="url(#clip0)">
<circle cx="25" cy="24" r="25" fill="white"/>
<path d="M41.0413 41.2109C41.2079 36.545 42.1603 34.0813 42.9395 32.0663C43.6688 30.1808 44.2986 28.5523 43.7217 26.207C43.0916 23.6455 40.9423 21.4134 38.0859 20.8469V9.64717L28.4388 0H0V50H50V41.2109H41.0413ZM40.8769 26.907C41.2333 28.3563 40.8688 29.2987 40.2072 31.0096C39.3857 33.1335 38.2863 35.9798 38.1107 41.211H35.1313C34.9556 35.9937 33.858 33.1377 33.0378 31.0063C32.3766 29.2883 32.0124 28.3419 32.3653 26.907C32.7656 25.2799 34.356 23.6328 36.6211 23.6328C38.8862 23.6328 40.4766 25.2799 40.8769 26.907ZM29.2969 5.00127L33.0847 8.78906H29.2969V5.00127ZM2.92969 47.0703V2.92969H26.3672V11.7188H35.1562V20.8469C32.3326 21.4064 30.1585 23.6134 29.5205 26.2071C28.9478 28.5354 29.576 30.1681 30.3036 32.0585C31.0824 34.0821 32.0341 36.5562 32.2009 41.2109H23.4375V47.0703H2.92969ZM47.0703 47.0703C46.4679 47.0703 26.8604 47.0703 26.3672 47.0703V44.1406H47.0703V47.0703Z" fill="url(#paint0_linear)"/>
<path d="M5.85938 17.7734H17.5781V20.7031H5.85938V17.7734Z" fill="url(#paint1_linear)"/>
<path d="M5.85938 23.6328H23.4375V26.5625H5.85938V23.6328Z" fill="url(#paint2_linear)"/>
<path d="M10.2539 35.3516C7.83076 35.3516 5.85938 37.3229 5.85938 39.7461C5.85938 42.1692 7.83076 44.1406 10.2539 44.1406C12.6771 44.1406 14.6484 42.1692 14.6484 39.7461C14.6484 37.3229 12.6771 35.3516 10.2539 35.3516ZM10.2539 41.2109C9.44619 41.2109 8.78906 40.5538 8.78906 39.7461C8.78906 38.9384 9.44619 38.2812 10.2539 38.2812C11.0616 38.2812 11.7188 38.9384 11.7188 39.7461C11.7188 40.5538 11.0616 41.2109 10.2539 41.2109Z" fill="url(#paint3_linear)"/>
</g>
<defs>
<linearGradient id="paint0_linear" x1="25" y1="0" x2="25" y2="50" gradientUnits="userSpaceOnUse">
<stop stop-color="#73C4C7"/>
<stop offset="1" stop-color="#429FA4"/>
</linearGradient>
<linearGradient id="paint1_linear" x1="11.7188" y1="17.7734" x2="11.7188" y2="20.7031" gradientUnits="userSpaceOnUse">
<stop stop-color="#73C4C7"/>
<stop offset="1" stop-color="#429FA4"/>
</linearGradient>
<linearGradient id="paint2_linear" x1="14.6484" y1="23.6328" x2="14.6484" y2="26.5625" gradientUnits="userSpaceOnUse">
<stop stop-color="#73C4C7"/>
<stop offset="1" stop-color="#429FA4"/>
</linearGradient>
<linearGradient id="paint3_linear" x1="10.2539" y1="35.3516" x2="10.2539" y2="44.1406" gradientUnits="userSpaceOnUse">
<stop stop-color="#73C4C7"/>
<stop offset="1" stop-color="#429FA4"/>
</linearGradient>
<clipPath id="clip0">
<rect width="50" height="50" fill="white"/>
</clipPath>
</defs>
</svg>
