<svg width="50" height="50" viewBox="0 0 50 50" fill="none" xmlns="http://www.w3.org/2000/svg">
<circle cx="25" cy="25" r="25" fill="white"/>
<path d="M42.6777 7.32227C37.9558 2.60049 31.6777 0 25 0C18.3223 0 12.0442 2.60049 7.32227 7.32227C2.60049 12.0442 0 18.3223 0 25C0 31.6777 2.60049 37.9558 7.32227 42.6777C12.0442 47.3995 18.3223 50 25 50C31.6777 50 37.9558 47.3995 42.6777 42.6777C47.3995 37.9558 50 31.6777 50 25C50 18.3223 47.3995 12.0442 42.6777 7.32227ZM40.6061 40.6061C36.4375 44.7746 30.8952 47.0703 25 47.0703C19.1048 47.0703 13.5625 44.7746 9.39395 40.6061C5.22539 36.4375 2.92969 30.8952 2.92969 25C2.92969 19.1048 5.22539 13.5625 9.39395 9.39395C13.5625 5.22539 19.1048 2.92969 25 2.92969C30.8952 2.92969 36.4375 5.22539 40.6061 9.39395C44.7746 13.5625 47.0703 19.1048 47.0703 25C47.0703 30.8952 44.7746 36.4375 40.6061 40.6061Z" fill="url(#paint0_linear)"/>
<path d="M31.1778 18.8221V10.1976H18.822V18.8221H10.1975V31.1779H18.822V39.8024H31.1778V31.1779H39.8023V18.8221H31.1778ZM36.8727 28.2482H28.2482V36.8727H21.7518V28.2482H13.1273V21.7518H21.7518V13.1273H28.2482V21.7518H36.8727V28.2482Z" fill="url(#paint1_linear)"/>
<defs>
<linearGradient id="paint0_linear" x1="25" y1="0" x2="25" y2="50" gradientUnits="userSpaceOnUse">
<stop stop-color="#73C4C7"/>
<stop offset="1" stop-color="#429FA4"/>
</linearGradient>
<linearGradient id="paint1_linear" x1="24.9999" y1="10.1976" x2="24.9999" y2="39.8024" gradientUnits="userSpaceOnUse">
<stop stop-color="#73C4C7"/>
<stop offset="1" stop-color="#429FA4"/>
</linearGradient>
</defs>
</svg>
