<svg width="11" height="11" viewBox="0 0 11 11" fill="none" xmlns="http://www.w3.org/2000/svg">
<path d="M9.1389 1.9186C8.33308 0.690698 7.00285 0 5.50634 0C4.02262 0 2.69239 0.690698 1.86099 1.9186C1.0296 3.12093 0.837735 4.65581 1.34936 5.99884C1.49006 6.35698 1.7075 6.72791 1.9889 7.06046L5.22494 10.8721C5.30169 10.9488 5.37843 11 5.49355 11C5.60867 11 5.68541 10.9488 5.76215 10.8721L9.01099 7.06046C9.29239 6.72791 9.52262 6.36977 9.65053 5.99884C10.1622 4.65581 9.97029 3.12093 9.1389 1.9186ZM5.50634 6.44651C4.40634 6.44651 3.4982 5.53837 3.4982 4.43837C3.4982 3.33837 4.40634 2.43023 5.50634 2.43023C6.60634 2.43023 7.51448 3.33837 7.51448 4.43837C7.51448 5.53837 6.61913 6.44651 5.50634 6.44651Z" fill="#D0E3E4"/>
</svg>
