<svg width="50" height="50" viewBox="0 0 50 50" fill="none" xmlns="http://www.w3.org/2000/svg">
<circle cx="25" cy="25" r="25" fill="white"/>
<path d="M41.5967 8.69346C37.7796 3.16904 31.7301 0 25.0005 0C18.2709 0 12.2214 3.16904 8.40431 8.69346C4.60597 14.1899 3.72892 21.1486 6.05353 27.2966C6.67531 28.9755 7.66369 30.6066 8.9842 32.1352L23.6695 49.3846C24.0017 49.775 24.4883 50 25.0005 50C25.5127 50 25.9993 49.7751 26.3315 49.3846L41.0127 32.1398C42.3391 30.6025 43.3262 28.9731 43.9428 27.3077C46.2721 21.1486 45.395 14.1899 41.5967 8.69346ZM40.669 26.0833C40.1935 27.3683 39.4172 28.6387 38.363 29.8606C38.3601 29.8636 38.3571 29.8665 38.3548 29.87L25.0005 45.5554L11.638 29.8602C10.5844 28.6393 9.80812 27.3689 9.32795 26.0717C7.40548 20.9872 8.13507 15.2337 11.2802 10.6818C14.4352 6.11543 19.4363 3.49648 25.0005 3.49648C30.5646 3.49648 35.5652 6.11533 38.7202 10.6818C41.8659 15.2337 42.5961 20.9872 40.669 26.0833Z" fill="url(#paint0_linear)"/>
<path d="M25.0004 10.3729C19.6024 10.3729 15.2102 14.7645 15.2102 20.1632C15.2102 25.5618 19.6018 29.9534 25.0004 29.9534C30.3991 29.9534 34.7907 25.5618 34.7907 20.1632C34.7907 14.7651 30.3985 10.3729 25.0004 10.3729ZM25.0004 26.4568C21.5301 26.4568 18.7067 23.6334 18.7067 20.1631C18.7067 16.6927 21.5301 13.8693 25.0004 13.8693C28.4708 13.8693 31.2942 16.6927 31.2942 20.1631C31.2942 23.6334 28.4708 26.4568 25.0004 26.4568Z" fill="url(#paint1_linear)"/>
<defs>
<linearGradient id="paint0_linear" x1="24.9999" y1="0" x2="24.9999" y2="50" gradientUnits="userSpaceOnUse">
<stop stop-color="#73C4C7"/>
<stop offset="1" stop-color="#429FA4"/>
</linearGradient>
<linearGradient id="paint1_linear" x1="25.0004" y1="10.3729" x2="25.0004" y2="29.9534" gradientUnits="userSpaceOnUse">
<stop stop-color="#73C4C7"/>
<stop offset="1" stop-color="#429FA4"/>
</linearGradient>
</defs>
</svg>
