<svg width="9" height="11" viewBox="0 0 9 11" fill="none" xmlns="http://www.w3.org/2000/svg">
<path d="M8.13914 1.9186C7.33333 0.690698 6.0031 0 4.50658 0C3.02286 0 1.69263 0.690698 0.861235 1.9186C0.0298392 3.12093 -0.162021 4.65581 0.349607 5.99884C0.490304 6.35698 0.707746 6.72791 0.989142 7.06046L4.22519 10.8721C4.30193 10.9488 4.37868 11 4.49379 11C4.60891 11 4.68565 10.9488 4.7624 10.8721L8.01124 7.06046C8.29263 6.72791 8.52286 6.36977 8.65077 5.99884C9.1624 4.65581 8.97054 3.12093 8.13914 1.9186ZM4.50658 6.44651C3.40658 6.44651 2.49844 5.53837 2.49844 4.43837C2.49844 3.33837 3.40658 2.43023 4.50658 2.43023C5.60658 2.43023 6.51472 3.33837 6.51472 4.43837C6.51472 5.53837 5.61937 6.44651 4.50658 6.44651Z" fill="#429FA4"/>
</svg>
