<svg width="12" height="7" viewBox="0 0 12 7" fill="none" xmlns="http://www.w3.org/2000/svg">
<path d="M11.8885 6.28082C11.8885 6.23288 11.8408 6.23288 11.8408 6.18493C11.6498 5.80137 11.2201 5.32192 10.6472 4.79452C10.3607 4.5548 10.2175 4.36301 10.122 4.26712C9.97873 4.07534 9.97874 3.93151 10.0265 3.73973C10.0742 3.59589 10.2652 3.35616 10.5994 2.92465C10.7904 2.68493 10.8859 2.5411 11.0291 2.39726C11.7453 1.43836 12.0795 0.815065 11.984 0.527393L11.9363 0.479452C11.8885 0.431507 11.8408 0.383563 11.7453 0.383563C11.6498 0.335618 11.5066 0.335618 11.3633 0.383563H9.54903C9.50128 0.383563 9.50128 0.383563 9.40579 0.383563C9.35804 0.383563 9.3103 0.383563 9.3103 0.383563H9.26256H9.21481L9.16706 0.431504C9.11932 0.479449 9.11931 0.479448 9.11931 0.527393C8.92833 1.05479 8.68961 1.4863 8.45088 1.96575C8.30765 2.20548 8.16442 2.44521 8.02118 2.63699C7.87794 2.82877 7.78245 2.9726 7.68696 3.06849C7.59147 3.16438 7.49598 3.21233 7.44823 3.30822C7.40049 3.35616 7.305 3.40411 7.305 3.35617C7.25726 3.35617 7.20951 3.35616 7.20951 3.30822C7.16176 3.26027 7.11402 3.21233 7.06628 3.16438C7.01853 3.11644 7.01853 3.02055 6.97078 2.92465C6.97078 2.82876 6.97078 2.73287 6.97078 2.68493C6.97078 2.63698 6.97078 2.49315 6.97078 2.39726C6.97078 2.25343 6.97078 2.15753 6.97078 2.10959C6.97078 1.96575 6.97078 1.77398 6.97078 1.58219C6.97078 1.39041 6.97078 1.24657 6.97078 1.15068C6.97078 1.05479 6.97078 0.910958 6.97078 0.815068C6.97078 0.671232 6.97078 0.575338 6.97078 0.527393C6.97078 0.479448 6.92305 0.38356 6.92305 0.335615C6.8753 0.28767 6.82755 0.239723 6.7798 0.191778C6.73206 0.143833 6.63657 0.143834 6.58883 0.095889C6.3501 0.0479438 6.06364 0 5.72942 0C4.9655 0 4.4403 0.0479467 4.24932 0.143837C4.15383 0.191782 4.05834 0.239725 4.01059 0.335615C3.9151 0.431506 3.9151 0.479452 3.96285 0.479452C4.20157 0.527398 4.39255 0.623284 4.48804 0.767119L4.53579 0.863016C4.58354 0.910961 4.58353 1.00685 4.63127 1.15068C4.67902 1.29452 4.67902 1.43835 4.67902 1.63014C4.67902 1.91781 4.67902 2.20548 4.67902 2.39726C4.67902 2.63699 4.63127 2.78082 4.63127 2.92465C4.63127 3.06849 4.58354 3.16438 4.53579 3.21233C4.48805 3.30822 4.48804 3.35617 4.4403 3.35617C4.4403 3.35617 4.44029 3.40411 4.39255 3.40411C4.3448 3.40411 4.29706 3.45206 4.20157 3.45206C4.15383 3.45206 4.05834 3.40411 4.01059 3.35617C3.9151 3.30822 3.81961 3.21233 3.77187 3.11644C3.67638 3.02055 3.58088 2.87671 3.48539 2.68493C3.3899 2.49315 3.24666 2.30137 3.15117 2.0137L3.05569 1.82192C3.00795 1.72603 2.91246 1.53425 2.81697 1.29452C2.72148 1.05479 2.62598 0.863016 2.53049 0.62329C2.48275 0.527399 2.43501 0.479449 2.38726 0.431504H2.33951C2.33951 0.431504 2.29176 0.383563 2.24402 0.383563C2.19627 0.383563 2.14853 0.335615 2.10079 0.335615H0.381962C0.190982 0.335615 0.0954931 0.383559 0.047748 0.431504L0 0.479452C0 0.479452 0 0.527396 0 0.575341C0 0.623287 2.91342e-06 0.671229 0.047748 0.767119C0.286474 1.34246 0.572943 1.91781 0.859413 2.49315C1.14588 3.02055 1.43236 3.5 1.62334 3.83562C1.86206 4.17124 2.05304 4.50685 2.29177 4.79452C2.53049 5.08219 2.67372 5.27397 2.72147 5.36986C2.81696 5.46576 2.8647 5.5137 2.91245 5.56164L3.05569 5.70548C3.15118 5.80137 3.29441 5.94521 3.48539 6.08904C3.67638 6.23288 3.9151 6.37671 4.15382 6.52055C4.39255 6.66438 4.67903 6.76028 4.9655 6.85617C5.29971 6.95206 5.58618 7 5.87265 6.95206H6.58883C6.73206 6.95206 6.82756 6.90411 6.92305 6.80822L6.97078 6.76027C6.97078 6.71233 7.01853 6.71233 7.01853 6.66438C7.01853 6.61644 7.01853 6.5685 7.01853 6.47261C7.01853 6.28083 7.01853 6.13699 7.06628 5.99315C7.11402 5.84932 7.11403 5.75343 7.16177 5.65754C7.20952 5.56165 7.25726 5.5137 7.305 5.46575C7.35275 5.41781 7.4005 5.36986 7.4005 5.36986H7.44823C7.54372 5.32192 7.68696 5.36986 7.78245 5.46575C7.92569 5.56164 8.06892 5.70548 8.16441 5.84932C8.2599 5.99315 8.40315 6.13699 8.59413 6.32877C8.78511 6.52055 8.92834 6.66439 9.02383 6.71233L9.16706 6.80822C9.26255 6.85617 9.35805 6.90411 9.50128 6.95206C9.64452 7 9.74 7 9.83549 7L11.4588 6.95206C11.6021 6.95206 11.7453 6.90412 11.8408 6.85617C11.9363 6.80822 11.984 6.76027 11.984 6.66438C11.984 6.61644 11.984 6.52055 11.984 6.47261C11.8885 6.37672 11.8885 6.32877 11.8885 6.28082Z" fill="url(#paint0_linear)"/>
<defs>
<linearGradient id="paint0_linear" x1="6" y1="0" x2="6" y2="7" gradientUnits="userSpaceOnUse">
<stop stop-color="#73C4C7"/>
<stop offset="1" stop-color="#429FA4"/>
</linearGradient>
</defs>
</svg>
